inDegrees=no
num_controls=7
num_derivatives=13
num_iterations=177
num_multipliers=7
num_parameters=0
num_slacks=7
num_states=26
objective=0.509477
objective_accelerations=0.040429
objective_balance=0.003684
objective_effort=0.029230
objective_height=0.323366
objective_ligament=0.112767
solver_duration=2539.754388
status=Solve_Succeeded
success=true
DataType=double
version=3
OpenSimVersion=4.5
endheader
time	/jointset/ground_pelvis/pelvis_tilt/value	/jointset/ground_pelvis/pelvis_tx/value	/jointset/ground_pelvis/pelvis_ty/value	/jointset/hip_l/hip_flexion_l/value	/jointset/hip_l/hip_adduction_l/value	/jointset/hip_l/hip_rotation_l/value	/jointset/back/lumbar_extension/value	/jointset/patellofemoral_l/patellar_flexion_l/value	/jointset/knee_l/knee_flexion_l/value	/jointset/knee_l/knee_adduction_l/value	/jointset/knee_l/knee_rotation_l/value	/jointset/ankle_l/ankle_angle_l/value	/jointset/subtalar_l/subtalar_angle_l/value	/jointset/ground_pelvis/pelvis_tilt/speed	/jointset/ground_pelvis/pelvis_tx/speed	/jointset/ground_pelvis/pelvis_ty/speed	/jointset/hip_l/hip_flexion_l/speed	/jointset/hip_l/hip_adduction_l/speed	/jointset/hip_l/hip_rotation_l/speed	/jointset/back/lumbar_extension/speed	/jointset/patellofemoral_l/patellar_flexion_l/speed	/jointset/knee_l/knee_flexion_l/speed	/jointset/knee_l/knee_adduction_l/speed	/jointset/knee_l/knee_rotation_l/speed	/jointset/ankle_l/ankle_angle_l/speed	/jointset/subtalar_l/subtalar_angle_l/speed	/forceset/tau_hip_flexion_l	/forceset/tau_hip_adduction_l	/forceset/tau_hip_rotation_l	/forceset/tau_knee_flexion_l	/forceset/tau_ankle_angle_l	/forceset/tau_subtalar_angle_l	/forceset/tau_lumbar_extension	lambda_cid13_p0	lambda_cid13_p1	lambda_cid13_p2	lambda_cid13_p3	lambda_cid13_p4	lambda_cid13_p5	lambda_cid14_p0	/jointset/ground_pelvis/pelvis_tilt/accel	/jointset/ground_pelvis/pelvis_tx/accel	/jointset/ground_pelvis/pelvis_ty/accel	/jointset/hip_l/hip_flexion_l/accel	/jointset/hip_l/hip_adduction_l/accel	/jointset/hip_l/hip_rotation_l/accel	/jointset/back/lumbar_extension/accel	/jointset/patellofemoral_l/patellar_flexion_l/accel	/jointset/knee_l/knee_flexion_l/accel	/jointset/knee_l/knee_adduction_l/accel	/jointset/knee_l/knee_rotation_l/accel	/jointset/ankle_l/ankle_angle_l/accel	/jointset/subtalar_l/subtalar_angle_l/accel	gamma_cid13_p0	gamma_cid13_p1	gamma_cid13_p2	gamma_cid13_p3	gamma_cid13_p4	gamma_cid13_p5	gamma_cid14_p0
0.5	-0.1087958200748249	-0.05285039942530282	0.8270772151911451	0.8767356202946091	-0.3112130221328243	-0.1370741260402731	-0.785527392904661	0.7895513550755678	0.7895513550753441	-0.07651893449727659	-0.1716291905057436	0.08163456698485363	0.01063262908027258	-0.2072581460168704	-0.1635763311831066	-0.3455651996084787	1.479942010760106	-0.108018875301583	0.5496129590141385	-0.8499484791502407	1.531030613399205	1.531030613398828	-0.01064393835976691	0.01635011019356841	0.3271985185412485	-0.009224698776649581	-0.2824703109442874	0.03848731595314725	-0.007369331703304162	-0.2038092391593558	0.1060686198191129	0.03968183668279693	0.3327023160859535	-10.3771764752394	-16.40808614334646	3.293816701975431	-9.366063134155777	-701.4307541354278	-65.52733680211908	-14.78620949885435	0.4117503312399297	0.688170002025876	-0.1675565451904645	-1.296794241420475	0.4222524508912758	-0.11335600079527	1.863810102107112	-0.7070957397543262	-0.7070957397543345	-0.0713455430314387	-0.01304207529057704	0.2977410091523065	0.5445208636417687	-1.647282835769412e-07	-3.363290517265316e-07	6.858928615236186e-07	2.725429996261548e-08	-1.492454612511681e-07	-6.006516140086893e-08	-1.426647762642745e-07
0.51	-0.1108478275700541	-0.05445179415779467	0.8236140203773626	0.8914676195916772	-0.3122726978120182	-0.1315845203970299	-0.793932866191432	0.8048227114259774	0.8048227114257238	-0.0766305664913231	-0.1714669712450873	0.08491982782113405	0.01056643614128529	-0.2031439798407069	-0.1567071289212577	-0.3469887154399949	1.46622283134913	-0.1039180771915512	0.5481803794568696	-0.8310618370339431	1.522907651803586	1.522907651803334	-0.01169534994744765	0.01606108325787369	0.3297248707457105	-0.004055063566862174	-0.2888029989780297	0.03895992582605828	-0.007396483299632866	-0.2066251038200724	0.1050918216406458	0.03997794474983946	0.3388194221703138	-10.94419320406404	-16.39442370092328	3.242542774532291	-9.037164845360479	-705.6884933658254	-65.40136637261547	-14.21655467709712	0.4111378813935365	0.6856241508388708	-0.11702072165012	-1.444753428067433	0.4036690516251575	-0.1775056777173274	1.913742442007877	-0.914819208430991	-0.9148192084120712	-0.1240058576999969	-0.04159316609721816	0.2107515353534563	0.4969793043340048	-1.614364446464014e-07	-2.909561084706479e-07	6.812609501032701e-07	3.324138239239448e-08	-1.431705320402105e-07	-4.092769318529651e-08	-1.37200856481158e-07
0.52	-0.1128587157794088	-0.05598463110515291	0.8201391360813614	0.9060553723672063	-0.3132914303980007	-0.126113099898274	-0.802146942821917	0.8200028535926362	0.8200028535923604	-0.07675310597942891	-0.1713085942864765	0.0882264860213096	0.01055069844533311	-0.1990342888409692	-0.1498647741563856	-0.3479030960522589	1.451092706452917	-0.09983025665886225	0.5459759301186062	-0.8116691478929747	1.512787776649353	1.512787776649228	-0.01282543717767524	0.01558164978665009	0.3314779913205848	0.0008663498303973192	-0.2951356870117804	0.03943253569893472	-0.007423634895727929	-0.2094409684808013	0.1041150234621636	0.0402740528168354	0.3449365282546769	-11.51177171537179	-16.38215624952108	3.193197762255165	-8.758736401003794	-709.9939111221003	-65.31211583037006	-13.64195977293095	0.4108552959548358	0.6828005026304785	-0.06572950134000727	-1.578983338467818	0.4196569354227168	-0.2677299569941639	1.965019507041311	-1.106478451477094	-1.10647845147708	-0.08708067154082683	-0.05112338239634059	0.1430946832347557	0.4948765011361755	-1.599267124717116e-07	-2.486473454286729e-07	6.813912765412048e-07	4.127039616003326e-08	-1.417398350288316e-07	-2.19848291158468e-08	-1.32626938402625e-07
0.53	-0.1148287356088441	-0.05744926240866889	0.8166578048451532	0.9204845448973338	-0.3142695018158864	-0.1206676254028401	-0.8101646526304821	0.8350711028763417	0.8350711028758564	-0.07688770660381958	-0.1711559887559563	0.09154642188189975	0.0105826269929762	-0.1949931373523419	-0.1430744704724025	-0.3482625552500221	1.434483178097602	-0.09580707472736417	0.542973456937179	-0.7917960962927526	1.500455166192716	1.500455166192495	-0.01414681474181201	0.01488989904899977	0.3323389135534285	0.005440025228854705	-0.3012655703832068	0.03978338175635123	-0.007440997205188012	-0.2127066125510392	0.1032586132706944	0.04045535226950024	0.3509167839241217	-12.07890826312099	-16.31566696625869	3.130138429310416	-8.298916612450038	-714.7098285751269	-65.21456749421007	-13.06352764924807	0.3972083595258125	0.6752068099878338	-0.005992935744065024	-1.7407519202244	0.3901292857694519	-0.3384508543825379	2.009955615713285	-1.357663382792277	-1.357663382806643	-0.1625069542879842	-0.08549676991160142	0.03203940218644018	0.4266699633878669	-1.564479955034104e-07	-2.114200787203973e-07	6.759816139865479e-07	4.598974854645579e-08	-1.353834488679828e-07	-6.446867351607294e-09	-1.278360943799508e-07
0.54	-0.1167590512665562	-0.05884637837360369	0.8131758912556171	0.934739859276673	-0.3152080453217075	-0.1152565646103649	-0.8179813303972052	0.8500038238474754	0.8500038238467809	-0.07703708913490674	-0.1710117599029149	0.09486985664659221	0.0106579036754412	-0.1910934544953345	-0.1363617064401491	-0.348019566717803	1.416321076295853	-0.0919246742456052	0.5390931895291204	-0.7714627395245071	1.485682114134668	1.48568211413435	-0.01578181852346682	0.0139063142928636	0.3321777721413625	0.009535976794806989	-0.3073954537546415	0.04013422781373084	-0.007458359514393399	-0.2159722566212892	0.1024022030792096	0.04063665172211522	0.3568970395935697	-12.6478113794402	-16.25030009735267	3.068894276980874	-7.882175638090503	-719.4866346165074	-65.15346398435797	-12.48267829998881	0.3825615696309073	0.6672925722845401	0.05476004465647726	-1.889498027754744	0.391500645474917	-0.4432888023204035	2.057080540646075	-1.594566771759407	-1.594566771759395	-0.1498059150444438	-0.1094901860934932	-0.06131804574717922	0.3993317346351548	-1.507908272740922e-07	-1.798148930621719e-07	6.644426019081727e-07	4.704734791536241e-08	-1.23577364073678e-07	5.323968457931528e-09	-1.228052471850352e-07
0.55	-0.1186510234503342	-0.06017677720282597	0.8096994386179905	0.948805932960187	-0.3161084585426139	-0.109888502675613	-0.8255923856648217	0.8647769913260193	0.8647769913256421	-0.07720422027071565	-0.1708786887601799	0.09818682200115253	0.01077184188775952	-0.1873174586666689	-0.1297332677303235	-0.347167714238639	1.396640898549783	-0.08818502773705719	0.5343838664873738	-0.7506753055773835	1.46857401235538	1.468574012354982	-0.017686729540152	0.01266372936041716	0.3310651531808998	0.01317427977229706	-0.3135682653196039	0.04053556560523358	-0.00745360322276896	-0.2190535536865698	0.1012572376280714	0.04071508673544492	0.3628685369112614	-13.31291487701543	-16.12347072378413	2.997913883416646	-7.372192512412422	-724.2475476870313	-64.98293432922924	-11.90100383897013	0.3726299850292507	0.658347796309919	0.1158614073603072	-2.045212122702545	0.3610696537844817	-0.5051599076103839	2.100526085051118	-1.825513251663854	-1.825513251675897	-0.2171948582512335	-0.1381379953425138	-0.1587645807877369	0.3344212603509761	-1.408634020103294e-07	-1.457129691783159e-07	6.374948841498895e-07	4.51697967347232e-08	-1.069784922624393e-07	1.598035469118083e-08	-1.151717341604261e-07
